<svg width="128" height="128" viewBox="0 0 128 128" fill="none" xmlns="http://www.w3.org/2000/svg">
<g clip-path="url(#clip0_118_342)">
<path d="M23.448 23.448L48.088 48.088" stroke="#F48622" stroke-width="8" stroke-miterlimit="10" stroke-linecap="round" stroke-linejoin="bevel"/>
<g opacity="0.64" filter="url(#filter0_f_118_342)">
<path d="M82.6319 28.588C72.0759 30.416 63.9999 42.788 63.9999 42.788C63.9999 42.788 55.9199 30.416 45.3679 28.588C19.3399 24.052 8.58394 46.728 12.9439 63.632C19.1759 87.928 48.6639 110.804 59.7639 118.696C62.3199 120.512 65.6839 120.512 68.2359 118.696C79.3279 110.8 108.792 87.928 115.06 63.632C119.416 46.728 108.66 24.052 82.6319 28.588Z" fill="url(#paint0_linear_118_342)"/>
</g>
<path d="M82.6319 28.588C72.0759 30.416 63.9999 42.788 63.9999 42.788C63.9999 42.788 55.9199 30.416 45.3679 28.588C19.3399 24.052 8.58394 46.728 12.9439 63.632C19.1759 87.928 48.6639 110.804 59.7639 118.696C62.3199 120.512 65.6839 120.512 68.2359 118.696C79.3279 110.8 108.792 87.928 115.06 63.632C119.416 46.728 108.66 24.052 82.6319 28.588Z" fill="url(#paint1_linear_118_342)"/>
<path d="M82.6319 28.588C72.0759 30.416 63.9999 42.788 63.9999 42.788C63.9999 42.788 55.9199 30.416 45.3679 28.588C19.3399 24.052 8.58394 46.728 12.9439 63.632C19.1759 87.928 48.6639 110.804 59.7639 118.696C62.3199 120.512 65.6839 120.512 68.2359 118.696C79.3279 110.8 108.792 87.928 115.06 63.632C119.416 46.728 108.66 24.052 82.6319 28.588Z" fill="url(#paint2_radial_118_342)"/>
<g opacity="0.75" filter="url(#filter1_f_118_342)">
<path d="M60 40V76L36 32L60 40Z" fill="#FFB5C2"/>
</g>
<g opacity="0.75" filter="url(#filter2_f_118_342)">
<path d="M87.5455 59.3118C91.2189 63.4359 98.8773 62.6101 104.651 57.4673C110.425 52.3246 112.127 44.8123 108.454 40.6883C104.781 36.5642 97.1222 37.39 91.3485 42.5327C85.5748 47.6755 83.8721 55.1877 87.5455 59.3118Z" fill="#FF98AB"/>
</g>
<g filter="url(#filter3_f_118_342)">
<path d="M68.7158 82.028V46.028C76.7158 36.428 90.7158 34.028 96.7158 34.028L68.7158 82.028Z" fill="#E02167"/>
</g>
<path d="M14.0479 30.248L8.08788 10.848C7.60788 9.168 9.16788 7.608 10.8479 8.088L30.2479 14.048C31.8079 14.528 32.3279 16.528 31.1679 17.688L17.6879 31.128C16.5279 32.288 14.5279 31.808 14.0479 30.248Z" fill="url(#paint3_linear_118_342)"/>
<path d="M103.768 108.128L83.768 87.648L83.688 100.248C83.688 102.528 84.568 104.688 86.128 106.328L97.488 117.968L97.528 118.008L97.568 118.048C98.648 119.128 100.128 119.768 101.768 119.768C105.088 119.768 107.768 117.088 107.768 113.768C107.768 111.168 106.088 108.968 103.768 108.128Z" fill="url(#paint4_linear_118_342)"/>
<path d="M108.208 103.768L87.7278 83.768L100.328 83.688C102.608 83.688 104.768 84.568 106.408 86.128L118.048 97.488L118.088 97.528L118.128 97.568C119.208 98.648 119.848 100.128 119.848 101.768C119.848 103.181 119.348 104.549 118.437 105.629C117.526 106.709 116.263 107.433 114.87 107.672C113.478 107.912 112.045 107.651 110.826 106.937C109.607 106.222 108.68 105.1 108.208 103.768Z" fill="url(#paint5_linear_118_342)"/>
<g filter="url(#filter4_f_118_342)">
<path d="M64 68H72V84H64V68Z" fill="#CF1D5E"/>
</g>
<path d="M71.8479 71.848L104.088 104.088" stroke="#FF9D49" stroke-width="8" stroke-miterlimit="10" stroke-linecap="round" stroke-linejoin="bevel"/>
<g filter="url(#filter5_f_118_342)">
<path d="M71.8479 71.848L102 102" stroke="#F88A3B" stroke-width="2" stroke-miterlimit="10" stroke-linecap="round" stroke-linejoin="bevel"/>
</g>
</g>
<defs>
<filter id="filter0_f_118_342" x="4.00122" y="20.0002" width="120" height="108.058" filterUnits="userSpaceOnUse" color-interpolation-filters="sRGB">
<feFlood flood-opacity="0" result="BackgroundImageFix"/>
<feBlend mode="normal" in="SourceGraphic" in2="BackgroundImageFix" result="shape"/>
<feGaussianBlur stdDeviation="4" result="effect1_foregroundBlur_118_342"/>
</filter>
<filter id="filter1_f_118_342" x="20" y="16" width="56" height="76" filterUnits="userSpaceOnUse" color-interpolation-filters="sRGB">
<feFlood flood-opacity="0" result="BackgroundImageFix"/>
<feBlend mode="normal" in="SourceGraphic" in2="BackgroundImageFix" result="shape"/>
<feGaussianBlur stdDeviation="8" result="effect1_foregroundBlur_118_342"/>
</filter>
<filter id="filter2_f_118_342" x="69.6074" y="22.0635" width="56.7847" height="55.873" filterUnits="userSpaceOnUse" color-interpolation-filters="sRGB">
<feFlood flood-opacity="0" result="BackgroundImageFix"/>
<feBlend mode="normal" in="SourceGraphic" in2="BackgroundImageFix" result="shape"/>
<feGaussianBlur stdDeviation="8" result="effect1_foregroundBlur_118_342"/>
</filter>
<filter id="filter3_f_118_342" x="56.7158" y="22.028" width="52" height="72" filterUnits="userSpaceOnUse" color-interpolation-filters="sRGB">
<feFlood flood-opacity="0" result="BackgroundImageFix"/>
<feBlend mode="normal" in="SourceGraphic" in2="BackgroundImageFix" result="shape"/>
<feGaussianBlur stdDeviation="6" result="effect1_foregroundBlur_118_342"/>
</filter>
<filter id="filter4_f_118_342" x="56" y="60" width="24" height="32" filterUnits="userSpaceOnUse" color-interpolation-filters="sRGB">
<feFlood flood-opacity="0" result="BackgroundImageFix"/>
<feBlend mode="normal" in="SourceGraphic" in2="BackgroundImageFix" result="shape"/>
<feGaussianBlur stdDeviation="4" result="effect1_foregroundBlur_118_342"/>
</filter>
<filter id="filter5_f_118_342" x="68.8479" y="68.848" width="36.1521" height="36.152" filterUnits="userSpaceOnUse" color-interpolation-filters="sRGB">
<feFlood flood-opacity="0" result="BackgroundImageFix"/>
<feBlend mode="normal" in="SourceGraphic" in2="BackgroundImageFix" result="shape"/>
<feGaussianBlur stdDeviation="1" result="effect1_foregroundBlur_118_342"/>
</filter>
<linearGradient id="paint0_linear_118_342" x1="64.0079" y1="120.004" x2="64.0079" y2="28.004" gradientUnits="userSpaceOnUse">
<stop stop-color="#F91D61"/>
<stop offset="0.444" stop-color="#FF3660"/>
<stop offset="1" stop-color="#FF297F"/>
</linearGradient>
<linearGradient id="paint1_linear_118_342" x1="64.0079" y1="120.004" x2="64.0079" y2="28.004" gradientUnits="userSpaceOnUse">
<stop stop-color="#F91D61"/>
<stop offset="0.444" stop-color="#FF3660"/>
<stop offset="1" stop-color="#FF297F"/>
</linearGradient>
<radialGradient id="paint2_radial_118_342" cx="0" cy="0" r="1" gradientUnits="userSpaceOnUse" gradientTransform="translate(80.2241 64.6567) rotate(169.087) scale(85.51 86.48)">
<stop offset="0.553" stop-color="#B33F5B" stop-opacity="0"/>
<stop offset="0.854" stop-color="#B33F5B"/>
</radialGradient>
<linearGradient id="paint3_linear_118_342" x1="10.8119" y1="10.812" x2="29.9999" y2="34" gradientUnits="userSpaceOnUse">
<stop stop-color="#7F5CD9"/>
<stop offset="1" stop-color="#614EAC"/>
</linearGradient>
<linearGradient id="paint4_linear_118_342" x1="87.616" y1="99.624" x2="104.048" y2="116.06" gradientUnits="userSpaceOnUse">
<stop stop-color="#7A4ACA"/>
<stop offset="1" stop-color="#654DB7"/>
</linearGradient>
<linearGradient id="paint5_linear_118_342" x1="97.9998" y1="88" x2="102.78" y2="107.896" gradientUnits="userSpaceOnUse">
<stop stop-color="#7A4ACA"/>
<stop offset="1" stop-color="#654DB7"/>
</linearGradient>
<clipPath id="clip0_118_342">
<rect width="128" height="128" fill="white"/>
</clipPath>
</defs>
</svg>
