<svg width="16" height="16" viewBox="0 0 16 16" fill="none" xmlns="http://www.w3.org/2000/svg">
<g clip-path="url(#clip0_119_126)">
<path d="M2.93091 2.93103L6.01091 6.01103" stroke="#F48622" stroke-miterlimit="10" stroke-linecap="round" stroke-linejoin="bevel"/>
<g opacity="0.64" filter="url(#filter0_f_119_126)">
<path d="M10.3291 3.57347C9.00958 3.80197 8.00008 5.34847 8.00008 5.34847C8.00008 5.34847 6.99008 3.80197 5.67108 3.57347C2.41758 3.00647 1.07308 5.84097 1.61808 7.95397C2.39708 10.991 6.08308 13.8505 7.47058 14.837C7.79008 15.064 8.21058 15.064 8.52958 14.837C9.91608 13.85 13.5991 10.991 14.3826 7.95397C14.9271 5.84097 13.5826 3.00647 10.3291 3.57347V3.57347Z" fill="url(#paint0_linear_119_126)"/>
</g>
<path d="M10.3291 3.57347C9.00958 3.80197 8.00008 5.34847 8.00008 5.34847C8.00008 5.34847 6.99008 3.80197 5.67108 3.57347C2.41758 3.00647 1.07308 5.84097 1.61808 7.95397C2.39708 10.991 6.08308 13.8505 7.47058 14.837C7.79008 15.064 8.21058 15.064 8.52958 14.837C9.91608 13.85 13.5991 10.991 14.3826 7.95397C14.9271 5.84097 13.5826 3.00647 10.3291 3.57347V3.57347Z" fill="url(#paint1_linear_119_126)"/>
<path d="M10.3291 3.57347C9.00958 3.80197 8.00008 5.34847 8.00008 5.34847C8.00008 5.34847 6.99008 3.80197 5.67108 3.57347C2.41758 3.00647 1.07308 5.84097 1.61808 7.95397C2.39708 10.991 6.08308 13.8505 7.47058 14.837C7.79008 15.064 8.21058 15.064 8.52958 14.837C9.91608 13.85 13.5991 10.991 14.3826 7.95397C14.9271 5.84097 13.5826 3.00647 10.3291 3.57347V3.57347Z" fill="url(#paint2_radial_119_126)"/>
<g opacity="0.75" filter="url(#filter1_f_119_126)">
<path d="M7.5 5V9.5L4.5 4L7.5 5Z" fill="#FFB5C2"/>
</g>
<g opacity="0.75" filter="url(#filter2_f_119_126)">
<path d="M10.9432 7.41394C11.4024 7.92945 12.3597 7.82623 13.0814 7.18339C13.8031 6.54054 14.0159 5.60151 13.5567 5.086C13.0976 4.57049 12.1403 4.67372 11.4186 5.31656C10.6968 5.9594 10.484 6.89843 10.9432 7.41394Z" fill="#FF98AB"/>
</g>
<g filter="url(#filter3_f_119_126)">
<path d="M8.5896 10.2535V5.75348C9.5896 4.55348 11.3396 4.25348 12.0896 4.25348L8.5896 10.2535Z" fill="#E02167"/>
</g>
<path d="M1.75602 3.78102L1.01102 1.35602C0.951016 1.14602 1.14602 0.951016 1.35602 1.01102L3.78102 1.75602C3.97602 1.81602 4.04102 2.06602 3.89602 2.21102L2.21102 3.89102C2.06602 4.03602 1.81602 3.97602 1.75602 3.78102V3.78102Z" fill="url(#paint3_linear_119_126)"/>
<path d="M12.9709 13.516L10.4709 10.956L10.4609 12.531C10.4609 12.816 10.5709 13.086 10.7659 13.291L12.1859 14.746L12.1909 14.751L12.1959 14.756C12.3309 14.891 12.5159 14.971 12.7209 14.971C13.1359 14.971 13.4709 14.636 13.4709 14.221C13.4709 13.896 13.2609 13.621 12.9709 13.516V13.516Z" fill="url(#paint4_linear_119_126)"/>
<path d="M13.5258 12.971L10.9658 10.471L12.5408 10.461C12.8258 10.461 13.0958 10.571 13.3008 10.766L14.7558 12.186L14.7608 12.191L14.7658 12.196C14.9008 12.331 14.9808 12.516 14.9808 12.721C14.9808 12.8976 14.9183 13.0686 14.8045 13.2036C14.6906 13.3387 14.5327 13.4291 14.3587 13.4591C14.1846 13.489 14.0055 13.4564 13.8531 13.3671C13.7007 13.2778 13.5848 13.1375 13.5258 12.971V12.971Z" fill="url(#paint5_linear_119_126)"/>
<g filter="url(#filter4_f_119_126)">
<path d="M8 8.5H9V10.5H8V8.5Z" fill="#CF1D5E"/>
</g>
<path d="M8.98096 8.98102L13.011 13.011" stroke="#FF9D49" stroke-miterlimit="10" stroke-linecap="round" stroke-linejoin="bevel"/>
<g filter="url(#filter5_f_119_126)">
<path d="M8.98096 8.98102L12.75 12.75" stroke="#F88A3B" stroke-width="0.25" stroke-miterlimit="10" stroke-linecap="round" stroke-linejoin="bevel"/>
</g>
</g>
<defs>
<filter id="filter0_f_119_126" x="0.500244" y="2.5" width="15" height="13.5072" filterUnits="userSpaceOnUse" color-interpolation-filters="sRGB">
<feFlood flood-opacity="0" result="BackgroundImageFix"/>
<feBlend mode="normal" in="SourceGraphic" in2="BackgroundImageFix" result="shape"/>
<feGaussianBlur stdDeviation="0.5" result="effect1_foregroundBlur_119_126"/>
</filter>
<filter id="filter1_f_119_126" x="2.5" y="2" width="7" height="9.5" filterUnits="userSpaceOnUse" color-interpolation-filters="sRGB">
<feFlood flood-opacity="0" result="BackgroundImageFix"/>
<feBlend mode="normal" in="SourceGraphic" in2="BackgroundImageFix" result="shape"/>
<feGaussianBlur stdDeviation="1" result="effect1_foregroundBlur_119_126"/>
</filter>
<filter id="filter2_f_119_126" x="8.70093" y="2.75793" width="7.09814" height="6.98407" filterUnits="userSpaceOnUse" color-interpolation-filters="sRGB">
<feFlood flood-opacity="0" result="BackgroundImageFix"/>
<feBlend mode="normal" in="SourceGraphic" in2="BackgroundImageFix" result="shape"/>
<feGaussianBlur stdDeviation="1" result="effect1_foregroundBlur_119_126"/>
</filter>
<filter id="filter3_f_119_126" x="7.0896" y="2.75348" width="6.5" height="9" filterUnits="userSpaceOnUse" color-interpolation-filters="sRGB">
<feFlood flood-opacity="0" result="BackgroundImageFix"/>
<feBlend mode="normal" in="SourceGraphic" in2="BackgroundImageFix" result="shape"/>
<feGaussianBlur stdDeviation="0.75" result="effect1_foregroundBlur_119_126"/>
</filter>
<filter id="filter4_f_119_126" x="7" y="7.5" width="3" height="4" filterUnits="userSpaceOnUse" color-interpolation-filters="sRGB">
<feFlood flood-opacity="0" result="BackgroundImageFix"/>
<feBlend mode="normal" in="SourceGraphic" in2="BackgroundImageFix" result="shape"/>
<feGaussianBlur stdDeviation="0.5" result="effect1_foregroundBlur_119_126"/>
</filter>
<filter id="filter5_f_119_126" x="8.60596" y="8.60602" width="4.51904" height="4.51898" filterUnits="userSpaceOnUse" color-interpolation-filters="sRGB">
<feFlood flood-opacity="0" result="BackgroundImageFix"/>
<feBlend mode="normal" in="SourceGraphic" in2="BackgroundImageFix" result="shape"/>
<feGaussianBlur stdDeviation="0.125" result="effect1_foregroundBlur_119_126"/>
</filter>
<linearGradient id="paint0_linear_119_126" x1="8.00108" y1="15.0005" x2="8.00108" y2="3.50047" gradientUnits="userSpaceOnUse">
<stop stop-color="#F91D61"/>
<stop offset="0.444" stop-color="#FF3660"/>
<stop offset="1" stop-color="#FF297F"/>
</linearGradient>
<linearGradient id="paint1_linear_119_126" x1="8.00108" y1="15.0005" x2="8.00108" y2="3.50047" gradientUnits="userSpaceOnUse">
<stop stop-color="#F91D61"/>
<stop offset="0.444" stop-color="#FF3660"/>
<stop offset="1" stop-color="#FF297F"/>
</linearGradient>
<radialGradient id="paint2_radial_119_126" cx="0" cy="0" r="1" gradientUnits="userSpaceOnUse" gradientTransform="translate(10.0281 8.08207) rotate(169.087) scale(10.6888 10.81)">
<stop offset="0.553" stop-color="#B33F5B" stop-opacity="0"/>
<stop offset="0.854" stop-color="#B33F5B"/>
</radialGradient>
<linearGradient id="paint3_linear_119_126" x1="1.35152" y1="1.35152" x2="3.75002" y2="4.25002" gradientUnits="userSpaceOnUse">
<stop stop-color="#7F5CD9"/>
<stop offset="1" stop-color="#614EAC"/>
</linearGradient>
<linearGradient id="paint4_linear_119_126" x1="10.9519" y1="12.453" x2="13.0059" y2="14.5075" gradientUnits="userSpaceOnUse">
<stop stop-color="#7A4ACA"/>
<stop offset="1" stop-color="#654DB7"/>
</linearGradient>
<linearGradient id="paint5_linear_119_126" x1="12.2498" y1="11" x2="12.8473" y2="13.487" gradientUnits="userSpaceOnUse">
<stop stop-color="#7A4ACA"/>
<stop offset="1" stop-color="#654DB7"/>
</linearGradient>
<clipPath id="clip0_119_126">
<rect width="16" height="16" fill="white"/>
</clipPath>
</defs>
</svg>
