<svg width="64" height="64" viewBox="0 0 64 64" fill="none" xmlns="http://www.w3.org/2000/svg">
<path d="M31.998 59.996C50.666 59.996 59.996 47.46 59.996 31.996C59.996 16.536 50.666 4 31.996 4C13.33 4 4 16.536 4 31.998C4 47.46 13.328 59.996 31.998 59.996Z" fill="url(#paint0_radial_118_341)"/>
<path d="M31.998 59.996C50.666 59.996 59.996 47.46 59.996 31.996C59.996 16.536 50.666 4 31.996 4C13.33 4 4 16.536 4 31.998C4 47.46 13.328 59.996 31.998 59.996Z" fill="url(#paint1_radial_118_341)"/>
<path d="M31.998 59.996C50.666 59.996 59.996 47.46 59.996 31.996C59.996 16.536 50.666 4 31.996 4C13.33 4 4 16.536 4 31.998C4 47.46 13.328 59.996 31.998 59.996Z" fill="url(#paint2_radial_118_341)"/>
<path d="M31.998 59.996C50.666 59.996 59.996 47.46 59.996 31.996C59.996 16.536 50.666 4 31.996 4C13.33 4 4 16.536 4 31.998C4 47.46 13.328 59.996 31.998 59.996Z" fill="url(#paint3_radial_118_341)" fill-opacity="0.6"/>
<path d="M31.998 59.996C50.666 59.996 59.996 47.46 59.996 31.996C59.996 16.536 50.666 4 31.996 4C13.33 4 4 16.536 4 31.998C4 47.46 13.328 59.996 31.998 59.996Z" fill="url(#paint4_radial_118_341)"/>
<path d="M31.998 59.996C50.666 59.996 59.996 47.46 59.996 31.996C59.996 16.536 50.666 4 31.996 4C13.33 4 4 16.536 4 31.998C4 47.46 13.328 59.996 31.998 59.996Z" fill="url(#paint5_radial_118_341)"/>
<path d="M31.998 59.996C50.666 59.996 59.996 47.46 59.996 31.996C59.996 16.536 50.666 4 31.996 4C13.33 4 4 16.536 4 31.998C4 47.46 13.328 59.996 31.998 59.996Z" fill="url(#paint6_radial_118_341)"/>
<path d="M31.998 59.996C50.666 59.996 59.996 47.46 59.996 31.996C59.996 16.536 50.666 4 31.996 4C13.33 4 4 16.536 4 31.998C4 47.46 13.328 59.996 31.998 59.996Z" fill="url(#paint7_radial_118_341)"/>
<path d="M32 50C14 50 14 32 14 32H50C50 32 50 50 32 50Z" fill="url(#paint8_radial_118_341)"/>
<path d="M16 33V32H48V33C48 33.5304 47.7893 34.0391 47.4142 34.4142C47.0391 34.7893 46.5304 35 46 35H18C17.4696 35 16.9609 34.7893 16.5858 34.4142C16.2107 34.0391 16 33.5304 16 33Z" fill="url(#paint9_linear_118_341)"/>
<path d="M20.9999 31C20.9999 31 14.9999 30 10.8999 25.268C6.71993 20.444 10.6219 13.534 17.9999 17C21.1539 11.856 28.9799 13.76 27.9399 20C26.9399 26 20.9999 31 20.9999 31Z" fill="url(#paint10_radial_118_341)"/>
<path d="M39.0339 31C39.0339 31 45.0339 30 49.1339 25.268C53.3139 20.444 49.4139 13.534 42.0339 17C38.8799 11.856 31.0539 13.76 32.0939 20C33.0939 26 39.0339 31 39.0339 31Z" fill="url(#paint11_radial_118_341)"/>
<path d="M21.1861 28.54C19.0941 27.88 15.5701 26.384 12.8721 23.268C8.69209 18.444 12.5941 11.534 19.9721 15C23.1261 9.85598 30.9521 11.76 29.9121 18C29.2141 22.18 26.1221 25.874 24.3081 27.732C23.9148 28.1444 23.414 28.4385 22.8623 28.5813C22.3107 28.7241 21.7301 28.7098 21.1861 28.54Z" fill="url(#paint12_linear_118_341)"/>
<path d="M42.8199 28.54C44.9119 27.88 48.4359 26.384 51.1339 23.268C55.3139 18.444 51.4139 11.534 44.0339 15C40.8799 9.85598 33.0539 11.76 34.0939 18C34.7919 22.18 37.8839 25.874 39.6979 27.732C40.5179 28.57 41.7039 28.892 42.8199 28.54Z" fill="url(#paint13_linear_118_341)"/>
<path d="M23.1081 22.8641C24.2796 21.6925 23.3299 18.8433 20.9867 16.5001C18.6436 14.157 15.7944 13.2072 14.6228 14.3788C13.4512 15.5504 14.401 18.3996 16.7441 20.7428C19.0873 23.0859 21.9365 24.0357 23.1081 22.8641Z" fill="url(#paint14_radial_118_341)"/>
<path d="M43.1842 24.2434C45.3371 23.7478 46.4795 20.7282 45.736 17.4989C44.9925 14.2697 42.6446 12.0537 40.4918 12.5494C38.339 13.0451 37.1965 16.0647 37.94 19.2939C38.6835 22.5231 41.0314 24.7391 43.1842 24.2434Z" fill="url(#paint15_radial_118_341)"/>
<path d="M24.0347 17.3693C25.2063 18.5409 27.1058 18.5409 28.2773 17.3693C29.4489 16.1978 29.4489 14.2983 28.2773 13.1267C27.1058 11.9551 25.2063 11.9551 24.0347 13.1267C22.8631 14.2983 22.8631 16.1978 24.0347 17.3693Z" fill="url(#paint16_radial_118_341)"/>
<path d="M45.9136 20.0764C46.6947 20.8575 48.5942 20.2243 50.1563 18.6622C51.7183 17.1001 52.3515 15.2006 51.5705 14.4196C50.7894 13.6385 48.8899 14.2717 47.3278 15.8338C45.7657 17.3959 45.1326 19.2954 45.9136 20.0764Z" fill="url(#paint17_radial_118_341)"/>
<defs>
<radialGradient id="paint0_radial_118_341" cx="0" cy="0" r="1" gradientUnits="userSpaceOnUse" gradientTransform="translate(51.0003 17.9992) rotate(132.839) scale(75.0066)">
<stop stop-color="#FFF478"/>
<stop offset="0.475" stop-color="#FFB02E"/>
<stop offset="1" stop-color="#F70A8D"/>
</radialGradient>
<radialGradient id="paint1_radial_118_341" cx="0" cy="0" r="1" gradientUnits="userSpaceOnUse" gradientTransform="translate(50.9977 18.0013) rotate(131.878) scale(77.8974)">
<stop stop-color="#FFF478"/>
<stop offset="0.475" stop-color="#FFB02E"/>
<stop offset="1" stop-color="#F70A8D"/>
</radialGradient>
<radialGradient id="paint2_radial_118_341" cx="0" cy="0" r="1" gradientUnits="userSpaceOnUse" gradientTransform="translate(31.9986 24.9994) rotate(101.31) scale(35.6932 45.7162)">
<stop offset="0.788" stop-color="#F59639" stop-opacity="0"/>
<stop offset="0.973" stop-color="#FF7DCE"/>
</radialGradient>
<radialGradient id="paint3_radial_118_341" cx="0" cy="0" r="1" gradientUnits="userSpaceOnUse" gradientTransform="translate(36 28) rotate(135) scale(82.0244)">
<stop offset="0.315" stop-opacity="0"/>
<stop offset="1"/>
</radialGradient>
<radialGradient id="paint4_radial_118_341" cx="0" cy="0" r="1" gradientUnits="userSpaceOnUse" gradientTransform="translate(31.9999 34.0015) rotate(77.692) scale(56.2938)">
<stop offset="0.508" stop-color="#7D6133" stop-opacity="0"/>
<stop offset="1" stop-color="#715B32"/>
</radialGradient>
<radialGradient id="paint5_radial_118_341" cx="0" cy="0" r="1" gradientUnits="userSpaceOnUse" gradientTransform="translate(33 33) rotate(55.713) scale(26.627 19.3006)">
<stop stop-color="#FFB849"/>
<stop offset="1" stop-color="#FFB847" stop-opacity="0"/>
</radialGradient>
<radialGradient id="paint6_radial_118_341" cx="0" cy="0" r="1" gradientUnits="userSpaceOnUse" gradientTransform="translate(41 36) rotate(9.86582) scale(23.3452)">
<stop stop-color="#FFA64B"/>
<stop offset="0.9" stop-color="#FFAE46" stop-opacity="0"/>
</radialGradient>
<radialGradient id="paint7_radial_118_341" cx="0" cy="0" r="1" gradientUnits="userSpaceOnUse" gradientTransform="translate(35.0001 30.0005) rotate(43.971) scale(118.106)">
<stop offset="0.185" stop-opacity="0"/>
<stop offset="1" stop-opacity="0.4"/>
</radialGradient>
<radialGradient id="paint8_radial_118_341" cx="0" cy="0" r="1" gradientUnits="userSpaceOnUse" gradientTransform="translate(32 54) rotate(-90) scale(22 44)">
<stop stop-color="#F70A8D"/>
<stop offset="1" stop-color="#89029C"/>
</radialGradient>
<linearGradient id="paint9_linear_118_341" x1="32" y1="32" x2="32" y2="35" gradientUnits="userSpaceOnUse">
<stop stop-color="#ECCDFF"/>
<stop offset="1" stop-color="white"/>
</linearGradient>
<radialGradient id="paint10_radial_118_341" cx="0" cy="0" r="1" gradientUnits="userSpaceOnUse" gradientTransform="translate(27.9999 28) rotate(-155.376) scale(26.4008 10.9739)">
<stop stop-color="#CC7521"/>
<stop offset="1" stop-color="#E6872B" stop-opacity="0"/>
</radialGradient>
<radialGradient id="paint11_radial_118_341" cx="0" cy="0" r="1" gradientUnits="userSpaceOnUse" gradientTransform="translate(40.0019 22.0008) rotate(122.005) scale(9.43398)">
<stop stop-color="#EC812A"/>
<stop offset="1" stop-color="#FBA84C" stop-opacity="0"/>
</radialGradient>
<linearGradient id="paint12_linear_118_341" x1="25.9721" y1="14" x2="19.9721" y2="28" gradientUnits="userSpaceOnUse">
<stop stop-color="#CA0B4A"/>
<stop offset="1" stop-color="#F70A8D"/>
</linearGradient>
<linearGradient id="paint13_linear_118_341" x1="47.9999" y1="14" x2="37.9999" y2="30" gradientUnits="userSpaceOnUse">
<stop stop-color="#CA0B4A"/>
<stop offset="1" stop-color="#F70A8D"/>
</linearGradient>
<radialGradient id="paint14_radial_118_341" cx="0" cy="0" r="1" gradientUnits="userSpaceOnUse" gradientTransform="translate(18.864 18.62) rotate(45) scale(6.20296 3.1528)">
<stop stop-color="#EC6686"/>
<stop offset="1" stop-color="#EC6686" stop-opacity="0"/>
</radialGradient>
<radialGradient id="paint15_radial_118_341" cx="0" cy="0" r="1" gradientUnits="userSpaceOnUse" gradientTransform="translate(42.0016 18.0017) rotate(68.199) scale(5.38516 3.6495)">
<stop stop-color="#EC6686"/>
<stop offset="0.26" stop-color="#EC6686"/>
<stop offset="1" stop-color="#EC6686" stop-opacity="0"/>
</radialGradient>
<radialGradient id="paint16_radial_118_341" cx="0" cy="0" r="1" gradientUnits="userSpaceOnUse" gradientTransform="translate(26.156 15.248) rotate(135) scale(3)">
<stop stop-color="#EC6686"/>
<stop offset="1" stop-color="#EC6686" stop-opacity="0"/>
</radialGradient>
<radialGradient id="paint17_radial_118_341" cx="0" cy="0" r="1" gradientUnits="userSpaceOnUse" gradientTransform="translate(48.742 17.248) rotate(135) scale(4 2)">
<stop stop-color="#EC6686"/>
<stop offset="1" stop-color="#EC6686" stop-opacity="0"/>
</radialGradient>
</defs>
</svg>
