<svg width="64" height="64" viewBox="0 0 64 64" fill="none" xmlns="http://www.w3.org/2000/svg">
<path d="M31.998 59.996C50.666 59.996 59.996 47.46 59.996 31.996C59.996 16.536 50.666 4 31.996 4C13.33 4 4 16.536 4 31.998C4 47.46 13.328 59.996 31.998 59.996Z" fill="url(#paint0_radial_118_340)"/>
<path d="M31.998 59.996C50.666 59.996 59.996 47.46 59.996 31.996C59.996 16.536 50.666 4 31.996 4C13.33 4 4 16.536 4 31.998C4 47.46 13.328 59.996 31.998 59.996Z" fill="url(#paint1_radial_118_340)"/>
<path d="M31.998 59.996C50.666 59.996 59.996 47.46 59.996 31.996C59.996 16.536 50.666 4 31.996 4C13.33 4 4 16.536 4 31.998C4 47.46 13.328 59.996 31.998 59.996Z" fill="url(#paint2_radial_118_340)"/>
<path d="M31.998 59.996C50.666 59.996 59.996 47.46 59.996 31.996C59.996 16.536 50.666 4 31.996 4C13.33 4 4 16.536 4 31.998C4 47.46 13.328 59.996 31.998 59.996Z" fill="url(#paint3_radial_118_340)" fill-opacity="0.6"/>
<path d="M31.998 59.996C50.666 59.996 59.996 47.46 59.996 31.996C59.996 16.536 50.666 4 31.996 4C13.33 4 4 16.536 4 31.998C4 47.46 13.328 59.996 31.998 59.996Z" fill="url(#paint4_radial_118_340)"/>
<path d="M31.998 59.996C50.666 59.996 59.996 47.46 59.996 31.996C59.996 16.536 50.666 4 31.996 4C13.33 4 4 16.536 4 31.998C4 47.46 13.328 59.996 31.998 59.996Z" fill="url(#paint5_radial_118_340)"/>
<path d="M31.998 59.996C50.666 59.996 59.996 47.46 59.996 31.996C59.996 16.536 50.666 4 31.996 4C13.33 4 4 16.536 4 31.998C4 47.46 13.328 59.996 31.998 59.996Z" fill="url(#paint6_radial_118_340)"/>
<path d="M31.998 59.996C50.666 59.996 59.996 47.46 59.996 31.996C59.996 16.536 50.666 4 31.996 4C13.33 4 4 16.536 4 31.998C4 47.46 13.328 59.996 31.998 59.996Z" fill="url(#paint7_radial_118_340)"/>
<path d="M18 40C23.5228 40 28 35.5228 28 30C28 24.4772 23.5228 20 18 20C12.4772 20 8 24.4772 8 30C8 35.5228 12.4772 40 18 40Z" fill="url(#paint8_radial_118_340)"/>
<path d="M39 40C43.9706 40 48 35.9706 48 31C48 26.0294 43.9706 22 39 22C34.0294 22 30 26.0294 30 31C30 35.9706 34.0294 40 39 40Z" fill="url(#paint9_radial_118_340)"/>
<path d="M21 36C23.3869 36 25.6761 35.0518 27.364 33.364C29.0518 31.6761 30 29.3869 30 27C30 24.6131 29.0518 22.3239 27.364 20.636C25.6761 18.9482 23.3869 18 21 18C18.6131 18 16.3239 18.9482 14.636 20.636C12.9482 22.3239 12 24.6131 12 27C12 29.3869 12.9482 31.6761 14.636 33.364C16.3239 35.0518 18.6131 36 21 36ZM43 36C45.3869 36 47.6761 35.0518 49.364 33.364C51.0518 31.6761 52 29.3869 52 27C52 24.6131 51.0518 22.3239 49.364 20.636C47.6761 18.9482 45.3869 18 43 18C40.6131 18 38.3239 18.9482 36.636 20.636C34.9482 22.3239 34 24.6131 34 27C34 29.3869 34.9482 31.6761 36.636 33.364C38.3239 35.0518 40.6131 36 43 36Z" fill="white"/>
<path d="M24 32C25.0609 32 26.0783 31.5786 26.8284 30.8284C27.5786 30.0783 28 29.0609 28 28C28 26.9391 27.5786 25.9217 26.8284 25.1716C26.0783 24.4214 25.0609 24 24 24C22.9391 24 21.9217 24.4214 21.1716 25.1716C20.4214 25.9217 20 26.9391 20 28C20 29.0609 20.4214 30.0783 21.1716 30.8284C21.9217 31.5786 22.9391 32 24 32Z" fill="url(#paint10_linear_118_340)"/>
<path d="M40 32C41.0609 32 42.0783 31.5786 42.8284 30.8284C43.5786 30.0783 44 29.0609 44 28C44 26.9391 43.5786 25.9217 42.8284 25.1716C42.0783 24.4214 41.0609 24 40 24C38.9391 24 37.9217 24.4214 37.1716 25.1716C36.4214 25.9217 36 26.9391 36 28C36 29.0609 36.4214 30.0783 37.1716 30.8284C37.9217 31.5786 38.9391 32 40 32Z" fill="url(#paint11_linear_118_340)"/>
<path d="M41.8021 50.012C42.0221 51.096 41.1021 52 39.9981 52H24.0001C22.8961 52 21.9801 51.096 22.1981 50.012C22.6592 47.7526 23.8866 45.7218 25.6728 44.2633C27.4589 42.8048 29.6941 42.0082 32.0001 42.0082C34.3061 42.0082 36.5413 42.8048 38.3274 44.2633C40.1136 45.7218 41.341 47.7526 41.8021 50.012Z" fill="url(#paint12_radial_118_340)"/>
<defs>
<radialGradient id="paint0_radial_118_340" cx="0" cy="0" r="1" gradientUnits="userSpaceOnUse" gradientTransform="translate(51.0003 17.9992) rotate(132.839) scale(75.0066)">
<stop stop-color="#FFF478"/>
<stop offset="0.475" stop-color="#FFB02E"/>
<stop offset="1" stop-color="#F70A8D"/>
</radialGradient>
<radialGradient id="paint1_radial_118_340" cx="0" cy="0" r="1" gradientUnits="userSpaceOnUse" gradientTransform="translate(50.9977 18.0013) rotate(131.878) scale(77.8974)">
<stop stop-color="#FFF478"/>
<stop offset="0.475" stop-color="#FFB02E"/>
<stop offset="1" stop-color="#F70A8D"/>
</radialGradient>
<radialGradient id="paint2_radial_118_340" cx="0" cy="0" r="1" gradientUnits="userSpaceOnUse" gradientTransform="translate(31.9986 24.9994) rotate(101.31) scale(35.6932 45.7162)">
<stop offset="0.788" stop-color="#F59639" stop-opacity="0"/>
<stop offset="0.973" stop-color="#FF7DCE"/>
</radialGradient>
<radialGradient id="paint3_radial_118_340" cx="0" cy="0" r="1" gradientUnits="userSpaceOnUse" gradientTransform="translate(36 28) rotate(135) scale(82.0244)">
<stop offset="0.315" stop-opacity="0"/>
<stop offset="1"/>
</radialGradient>
<radialGradient id="paint4_radial_118_340" cx="0" cy="0" r="1" gradientUnits="userSpaceOnUse" gradientTransform="translate(31.9999 34.0015) rotate(77.692) scale(56.2938)">
<stop offset="0.508" stop-color="#7D6133" stop-opacity="0"/>
<stop offset="1" stop-color="#715B32"/>
</radialGradient>
<radialGradient id="paint5_radial_118_340" cx="0" cy="0" r="1" gradientUnits="userSpaceOnUse" gradientTransform="translate(33 33) rotate(55.713) scale(26.627 19.3006)">
<stop stop-color="#FFB849"/>
<stop offset="1" stop-color="#FFB847" stop-opacity="0"/>
</radialGradient>
<radialGradient id="paint6_radial_118_340" cx="0" cy="0" r="1" gradientUnits="userSpaceOnUse" gradientTransform="translate(41 36) rotate(9.86582) scale(23.3452)">
<stop stop-color="#FFA64B"/>
<stop offset="0.9" stop-color="#FFAE46" stop-opacity="0"/>
</radialGradient>
<radialGradient id="paint7_radial_118_340" cx="0" cy="0" r="1" gradientUnits="userSpaceOnUse" gradientTransform="translate(35.0001 30.0005) rotate(43.971) scale(118.106)">
<stop offset="0.185" stop-opacity="0"/>
<stop offset="1" stop-opacity="0.4"/>
</radialGradient>
<radialGradient id="paint8_radial_118_340" cx="0" cy="0" r="1" gradientUnits="userSpaceOnUse" gradientTransform="translate(25.777 22.2228) rotate(135) scale(19.4847 10.0846)">
<stop stop-color="#392108"/>
<stop offset="1" stop-color="#C87928" stop-opacity="0"/>
</radialGradient>
<radialGradient id="paint9_radial_118_340" cx="0" cy="0" r="1" gradientUnits="userSpaceOnUse" gradientTransform="translate(46 24) rotate(135) scale(16.2635 9.18099)">
<stop stop-color="#392108"/>
<stop offset="1" stop-color="#C87928" stop-opacity="0"/>
</radialGradient>
<linearGradient id="paint10_linear_118_340" x1="41.23" y1="24" x2="39.854" y2="32.06" gradientUnits="userSpaceOnUse">
<stop stop-color="#553B3E"/>
<stop offset="1" stop-color="#3D2432"/>
</linearGradient>
<linearGradient id="paint11_linear_118_340" x1="41.23" y1="24" x2="39.854" y2="32.06" gradientUnits="userSpaceOnUse">
<stop stop-color="#553B3E"/>
<stop offset="1" stop-color="#3D2432"/>
</linearGradient>
<radialGradient id="paint12_radial_118_340" cx="0" cy="0" r="1" gradientUnits="userSpaceOnUse" gradientTransform="translate(32.0001 54.222) rotate(-90) scale(15.2222 30.4444)">
<stop stop-color="#F70A8D"/>
<stop offset="1" stop-color="#89029C"/>
</radialGradient>
</defs>
</svg>
